<?xml version="1.0" encoding="utf-8"?>
<!-- Generator: Adobe Illustrator 16.0.0, SVG Export Plug-In . SVG Version: 6.00 Build 0)  -->
<!DOCTYPE svg PUBLIC "-//W3C//DTD SVG 1.1//EN" "http://www.w3.org/Graphics/SVG/1.1/DTD/svg11.dtd">
<svg version="1.1" id="Layer_1" xmlns="http://www.w3.org/2000/svg" xmlns:xlink="http://www.w3.org/1999/xlink" x="0px" y="0px"
	 width="216px" height="60px" viewBox="0 0 216 60" enable-background="new 0 0 216 60" xml:space="preserve">
<g>
	<g>
		<path fill="#231F20" d="M94.083,39.114h-4.93l-0.221-2.961h-5.305l-1.267,2.961h-5.416l9.192-18.08h5.36L94.083,39.114z
			 M88.608,32.317l-0.497-6.584h-0.044l-2.797,6.584H88.608z"/>
		<path fill="#231F20" d="M111.77,26.964l-4.616,0.58V27.45c0-0.882-0.235-1.534-0.708-1.963c-0.477-0.426-0.997-0.638-1.564-0.638
			c-0.743,0-1.463,0.3-2.168,0.902c-0.702,0.606-1.264,1.528-1.689,2.772c-0.426,1.239-0.637,2.447-0.637,3.625
			c0,0.894,0.217,1.641,0.652,2.249c0.435,0.605,1.072,0.903,1.91,0.903c0.77,0,1.419-0.269,1.945-0.813
			c0.529-0.541,0.996-1.376,1.393-2.504l4.707,0.816c-0.488,1.865-1.438,3.436-2.835,4.709c-1.405,1.273-3.23,1.912-5.478,1.912
			c-2.342,0-4.137-0.697-5.378-2.086c-1.239-1.388-1.857-3.239-1.857-5.546c0-1.769,0.367-3.544,1.105-5.328
			c0.734-1.784,1.81-3.186,3.224-4.205c1.413-1.02,3.109-1.531,5.081-1.531c2.049,0,3.67,0.572,4.854,1.715
			C110.899,23.585,111.585,25.093,111.77,26.964z"/>
		<path fill="#231F20" d="M120.839,21.035l-3.484,18.08h-5.094l3.485-18.08H120.839z"/>
		<path fill="#231F20" d="M150.111,21.035l-3.506,18.08h-4.182l3.006-13.813h-0.067l-6.024,13.813h-3.709l-0.7-13.813h-0.044
			l-2.339,13.813h-4.184l3.473-18.08h6.136l0.611,11.456h0.045l5.16-11.456H150.111z"/>
		<path fill="#231F20" d="M157.749,25.733c2.109,0,3.646,0.59,4.609,1.775c0.968,1.185,1.45,2.568,1.45,4.156
			c0,1.208-0.276,2.438-0.832,3.686c-0.556,1.255-1.393,2.241-2.508,2.973c-1.109,0.732-2.482,1.1-4.111,1.1
			c-2.063,0-3.584-0.567-4.572-1.695c-0.98-1.132-1.472-2.54-1.472-4.226c0-1.32,0.295-2.601,0.88-3.833
			c0.59-1.234,1.439-2.198,2.559-2.892C154.868,26.08,156.199,25.733,157.749,25.733z M156.646,36.03
			c0.847,0,1.517-0.479,2.015-1.437c0.492-0.959,0.743-2.022,0.743-3.191c0-0.84-0.192-1.437-0.57-1.778
			c-0.373-0.341-0.793-0.512-1.252-0.512c-0.955,0-1.672,0.479-2.148,1.44c-0.477,0.963-0.717,1.944-0.717,2.948
			c0,0.725,0.188,1.325,0.561,1.81C155.65,35.79,156.105,36.03,156.646,36.03z"/>
		<path fill="#231F20" d="M174.901,26.03l-0.688,3.585h-2.363l-0.866,4.628c-0.057,0.193-0.086,0.406-0.086,0.629
			c0,0.59,0.348,0.887,1.053,0.887c0.223,0,0.691-0.078,1.398-0.235l-0.676,3.59c-1.363,0.204-2.356,0.308-2.998,0.308
			c-1.264,0-2.162-0.338-2.691-1.011c-0.525-0.677-0.793-1.41-0.793-2.207c0-0.265,0.108-0.97,0.323-2.111l0.841-4.477h-1.616
			l0.664-3.585h1.655l0.387-2.048l5.046-2.798l-0.929,4.846H174.901z"/>
		<path fill="#231F20" d="M182.994,25.733c2.108,0,3.645,0.59,4.607,1.775c0.967,1.185,1.451,2.568,1.451,4.156
			c0,1.208-0.278,2.438-0.833,3.686c-0.556,1.255-1.388,2.241-2.501,2.973c-1.117,0.732-2.483,1.1-4.111,1.1
			c-2.066,0-3.59-0.567-4.573-1.695c-0.987-1.132-1.478-2.54-1.478-4.226c0-1.32,0.293-2.601,0.882-3.833
			c0.594-1.234,1.442-2.198,2.562-2.892C180.118,26.08,181.446,25.733,182.994,25.733z M181.893,36.03
			c0.843,0,1.517-0.479,2.013-1.437c0.491-0.959,0.744-2.022,0.744-3.191c0-0.84-0.191-1.437-0.571-1.778
			c-0.376-0.341-0.793-0.512-1.252-0.512c-0.954,0-1.667,0.479-2.147,1.44c-0.477,0.963-0.717,1.944-0.717,2.948
			c0,0.725,0.188,1.325,0.559,1.81C180.896,35.79,181.354,36.03,181.893,36.03z"/>
		<path fill="#231F20" d="M201.47,26.127L199.807,30c-0.35-0.091-0.658-0.135-0.931-0.135c-0.867,0-1.567,0.344-2.11,1.034
			c-0.542,0.69-0.956,1.798-1.252,3.317l-0.936,4.897h-4.528l2.507-13.084h4.234l-0.523,2.578l0.043,0.05
			c0.704-1.161,1.318-1.937,1.85-2.334c0.535-0.394,1.124-0.59,1.756-0.59C200.399,25.733,200.914,25.866,201.47,26.127z"/>
		<path fill="#231F20" d="M213.498,29.163l-4.226,0.506c-0.127-0.788-0.659-1.185-1.587-1.185c-0.548,0-0.962,0.111-1.243,0.332
			c-0.282,0.221-0.42,0.482-0.42,0.776c0,0.306,0.12,0.559,0.37,0.761c0.247,0.2,0.911,0.388,1.992,0.559
			c1.739,0.288,2.895,0.722,3.465,1.301c0.573,0.579,0.861,1.355,0.861,2.325c0,1.348-0.559,2.501-1.685,3.452
			c-1.129,0.956-2.839,1.432-5.14,1.432c-1.881,0-3.253-0.306-4.13-0.911c-0.871-0.61-1.383-1.614-1.53-3.012l4.462-0.433
			c0.19,1.062,0.822,1.593,1.887,1.593c0.498,0,0.934-0.116,1.319-0.358c0.375-0.237,0.569-0.579,0.569-1.022
			c0-0.402-0.142-0.673-0.411-0.814c-0.276-0.141-0.793-0.276-1.556-0.408c-1.754-0.303-2.941-0.764-3.561-1.378
			c-0.623-0.621-0.935-1.396-0.935-2.331c0-0.767,0.231-1.513,0.702-2.246c0.465-0.734,1.169-1.308,2.11-1.731
			c0.943-0.426,2.107-0.637,3.479-0.637c1.575,0,2.783,0.258,3.627,0.77C212.757,27.021,213.286,27.902,213.498,29.163z"/>
	</g>
	<g>
		<path fill="#00A55D" d="M58.869,29.715c0,15.178-12.301,27.474-27.485,27.474c-15.185,0-27.495-12.296-27.495-27.474
			c0-15.172,12.31-27.471,27.495-27.471C46.567,2.245,58.869,14.543,58.869,29.715z"/>
		<path fill="#FFFFFF" d="M14.909,28.096l0.846-3.118h5.39l0.838,3.118h4.828l-4.828-14.843h-5.375l0.555,0.934L12.35,28.096H14.909
			z M18.5,16.853h0.476l1.873,6.418H16.22L18.5,16.853z"/>
		<path fill="#FFFFFF" d="M32.021,28.096c3.118,1.046,6.709-1.528,6.709-1.528v-2.636c0,0-3.215,3.488-5.76,1.316
			c-2.551-2.175-1.613-7.563,0-9.256c1.616-1.699,4.723-1.046,5.86,1.313c0,0,0-2.36,0-3.012c0-0.772-8.325-5.025-11.443,3.585
			C26.928,19.133,26.053,26.106,32.021,28.096z"/>
		<polygon fill="#FFFFFF" points="45.253,12.965 41.007,12.965 41.007,28.096 45.253,28 		"/>
		<path fill="#FFFFFF" d="M6.037,36.035c2.824,11.351,13.104,19.773,25.347,19.773c12.254,0,22.516-8.423,25.334-19.805
			l-0.006,0.031c-6.021,0.478-11.37,0.448-14.191-3.123c-2.845-3.599-14.564,1.992-14.852,2.271
			c-0.282,0.279-5.686,2.833-9.927,1.329c-4.795-1.755-10.781-0.679-11.705-0.509V36.035z"/>
		<path fill="#00A55D" d="M51.143,44.693c-1.12,1.481-2.41,2.827-3.826,4.009l-0.021-0.021c-8.522-6.139-12.343-3.58-14.902-1.401
			c-2.554,2.175-7.94,2.45-10.307,1.71c-2.465-0.781-7.343-0.926-7.343-0.926l-0.023,0.021c-0.708-0.644-1.375-1.313-2.013-2.039
			h0.07c0,0,4.285-0.186,9.205,0.293c4.933,0.471,3.885,0.655,8.61-2.457c4.729-3.126,5.019-0.146,11.073-0.663
			c6.837-0.589,9.436,1.454,9.436,1.454L51.143,44.693z"/>
		<path fill="#00A55D" d="M7.889,37.647c0,0,3.887-0.861,10.132,1.128c6.227,1.98,10.394-0.485,17.02-3.592
			c4.167-2.183,8.234-1.228,6.057,1.89c-0.755,1.893,2.56,1.702,3.127,1.607c0.562-0.102,8.222-1.28,10.151,0.307l0,0
			c-0.386,0.979-0.817,1.907-1.326,2.791l-0.032-0.016c0,0-6.709-2.326-11.352-0.716c-3.605,1.107-2.774-2.031-2.745-2.271
			c0-0.17-0.891-1.17-3.683,0c-2.471,1.029-7.384,3.873-7.384,3.873s-3.786,3.785-10.595-0.377C15,40.88,12.312,39.513,8.9,40.18
			H8.881c-0.37-0.812-0.719-1.651-1.007-2.532H7.889z"/>
		<path fill="#00A55D" d="M44.114,50.991c-3.724,2.234-8.058,3.504-12.73,3.504c-1.855,0-3.686-0.187-5.41-0.565l-0.009,0.009
			c0,0,5.29-3.825,6.803-4.948c1.52-1.152,7.35-3.38,11.329,1.986L44.114,50.991z"/>
	</g>
	<g>
		<rect x="3.889" y="2.245" fill="none" width="18.329" height="18.316"/>
		<rect x="22.218" y="2.245" fill="none" width="18.323" height="18.316"/>
		<rect x="40.541" y="2.245" fill="none" width="18.328" height="18.316"/>
		<rect x="3.889" y="20.561" fill="none" width="18.329" height="18.314"/>
		<rect x="22.218" y="20.561" fill="none" width="18.323" height="18.314"/>
		<rect x="40.541" y="20.561" fill="none" width="18.328" height="18.314"/>
		<rect x="58.986" y="20.561" fill="none" width="18.326" height="18.314"/>
		<rect x="3.889" y="38.875" fill="none" width="18.329" height="18.314"/>
		<rect x="22.218" y="38.875" fill="none" width="18.323" height="18.314"/>
		<rect x="40.541" y="38.875" fill="none" width="18.328" height="18.314"/>
	</g>
</g>
</svg>
